<?xml version="1.0" standalone="no"?>
<!DOCTYPE svg PUBLIC "-//W3C//DTD SVG 20010904//EN"
 "http://www.w3.org/TR/2001/REC-SVG-20010904/DTD/svg10.dtd">
<svg version="1.0" xmlns="http://www.w3.org/2000/svg"
 width="1024.000000pt" height="1024.000000pt" viewBox="0 0 1024.000000 1024.000000"
 preserveAspectRatio="xMidYMid meet">

<g transform="translate(0.000000,1024.000000) scale(0.100000,-0.100000)"
fill="#000000" stroke="none">
<path d="M620 7615 l0 -2005 2005 0 2005 0 0 2005 0 2005 -2005 0 -2005 0 0
-2005z m2255 1096 c201 -63 278 -104 358 -190 94 -101 131 -211 125 -380 -3
-112 -5 -119 -43 -195 -45 -90 -121 -172 -196 -213 -27 -14 -49 -29 -49 -33 0
-3 30 -19 67 -34 152 -62 267 -184 315 -331 33 -102 33 -280 -1 -385 -40 -126
-132 -239 -256 -313 -88 -53 -241 -105 -343 -117 -48 -5 -315 -10 -594 -10
l-508 0 0 1113 0 1112 542 -6 c397 -4 554 -9 583 -18z"/>
<path d="M2190 8100 l0 -291 243 3 c227 3 246 5 302 27 149 60 217 208 170
369 -21 71 -52 103 -137 143 l-73 34 -252 3 -253 4 0 -292z"/>
<path d="M2197 7473 c-4 -3 -7 -145 -7 -315 l0 -308 254 0 c139 0 276 4 304
10 126 24 247 112 273 200 6 20 10 77 8 127 -4 84 -7 94 -38 140 -36 53 -102
102 -161 121 -19 6 -84 16 -145 22 -122 11 -478 14 -488 3z"/>
<path d="M5610 7615 l0 -2005 2005 0 2005 0 0 2005 0 2005 -2005 0 -2005 0 0
-2005z m2265 1096 c267 -84 372 -162 443 -325 62 -145 62 -287 0 -432 -35 -82
-119 -176 -194 -217 -21 -13 -39 -29 -39 -36 0 -7 27 -24 60 -38 154 -64 267
-191 312 -350 21 -76 24 -102 19 -193 -7 -176 -57 -291 -173 -401 -102 -98
-290 -180 -451 -199 -48 -5 -315 -10 -594 -10 l-508 0 0 1113 0 1112 542 -6
c397 -4 554 -9 583 -18z"/>
<path d="M7190 8100 l0 -291 243 3 c226 3 246 5 301 27 113 45 171 124 183
246 7 73 -15 160 -52 203 -13 15 -57 44 -97 63 l-73 34 -252 3 -253 4 0 -292z"/>
<path d="M7190 7165 l0 -315 254 0 c139 0 277 4 306 10 29 5 85 26 124 45 117
58 174 161 161 289 -6 54 -35 128 -67 167 -21 25 -100 75 -138 87 -58 19 -244
32 -447 32 l-193 0 0 -315z"/>
<path d="M620 2625 l0 -2005 2005 0 2005 0 0 2005 0 2005 -2005 0 -2005 0 0
-2005z m2474 1105 c109 -19 219 -53 319 -98 l38 -17 2 -205 2 -205 -107 52
c-60 30 -139 59 -180 68 -40 9 -98 21 -128 27 -30 7 -111 12 -180 11 -150 0
-313 -34 -392 -83 -27 -17 -52 -30 -57 -30 -16 0 -102 -82 -146 -140 -49 -64
-106 -186 -123 -265 -17 -79 -22 -220 -12 -346 7 -96 14 -131 45 -210 60 -154
153 -261 288 -330 142 -72 383 -102 565 -70 34 6 88 15 120 21 66 11 254 86
301 119 l31 22 0 -203 0 -204 -55 -27 c-172 -84 -399 -130 -645 -130 -422 0
-712 126 -932 404 -98 123 -181 340 -199 516 -16 157 -6 449 19 538 32 112 64
196 94 248 15 26 28 50 28 54 0 3 24 37 54 77 56 74 142 160 211 212 49 37
180 114 193 114 6 0 42 14 81 30 62 27 212 59 346 74 80 9 303 -4 419 -24z"/>
<path d="M6018 4623 l-408 -3 0 -2000 0 -2000 2005 0 2005 0 0 2005 0 2005
-1597 -2 c-879 -2 -1781 -4 -2005 -5z m2352 -1078 l0 -195 -510 0 -510 0 0
-285 0 -285 450 0 450 0 0 -200 0 -200 -450 0 -450 0 0 -445 0 -445 -235 0
-235 0 0 203 c-1 111 -3 617 -6 1125 l-6 922 751 0 751 0 0 -195z"/>
</g>
</svg>
